<?xml version="1.0" standalone="no"?><!DOCTYPE svg PUBLIC "-//W3C//DTD SVG 1.1//EN" "http://www.w3.org/Graphics/SVG/1.1/DTD/svg11.dtd"><svg class="icon" width="48px" height="48.00px" viewBox="0 0 1024 1024" version="1.1" xmlns="http://www.w3.org/2000/svg"><path fill="#ffffff" d="M800 960 224 960C188.64 960 160 931.328 160 896L160 128C160 92.64 188.64 64 224 64L800 64C835.328 64 864 92.64 864 128L864 896C864 931.328 835.328 960 800 960ZM800 128 704 128 704 416C704 433.664 689.664 448 672 448 654.336 448 640 433.664 640 416L640 128 224 128 224 896 800 896 800 128Z" /></svg>