<?xml version="1.0" standalone="no"?><!DOCTYPE svg PUBLIC "-//W3C//DTD SVG 1.1//EN" "http://www.w3.org/Graphics/SVG/1.1/DTD/svg11.dtd"><svg t="1523883806267" class="icon" style="" viewBox="0 0 1024 1024" version="1.1" xmlns="http://www.w3.org/2000/svg" p-id="2027" xmlns:xlink="http://www.w3.org/1999/xlink" width="20" height="20"><defs><style type="text/css"></style></defs><path d="M297.173333 853.077333a41.813333 41.813333 0 0 0 25.301334-8.533333l391.168-303.018667a38.357333 38.357333 0 0 0 15.061333-30.293333 38.186667 38.186667 0 0 0-15.061333-30.293333l-389.546667-301.397334a41.386667 41.386667 0 0 0-56.661333 5.973334 37.845333 37.845333 0 0 0 6.186666 54.613333l350.421334 271.146667-352.170667 272.725333a37.845333 37.845333 0 0 0-6.186667 54.613333c8.021333 9.472 19.669333 14.464 31.488 14.464z" fill="#707070" p-id="2028"></path></svg>