<?xml version="1.0" standalone="no"?><!DOCTYPE svg PUBLIC "-//W3C//DTD SVG 1.1//EN" "http://www.w3.org/Graphics/SVG/1.1/DTD/svg11.dtd"><svg class="icon" width="200px" height="200.00px" viewBox="0 0 1024 1024" version="1.1" xmlns="http://www.w3.org/2000/svg"><path fill="#8a8a8a" d="M962.079334 545.28l61.44-352.768c1.536-7.68-0.512-14.848-5.632-20.992-5.12-5.632-12.288-9.216-19.456-9.216H279.583334c-14.336 0-25.6 11.264-25.6 25.6s11.264 25.6 25.6 25.6h688.64l-53.248 304.128-631.296 84.48L184.351334 137.728c-1.536-7.68-6.656-14.336-13.824-17.408l-133.632-66.56c-12.8-6.144-28.16-1.024-34.304 11.776-6.144 12.8-1.024 28.16 11.776 34.304l122.368 60.416L266.271334 765.44c2.56 11.776 12.8 20.48 25.088 20.48h663.552c14.336 0 25.6-11.264 25.6-25.6s-11.264-25.6-25.6-25.6H311.839334l-17.408-81.92 645.632-86.016c11.264-2.048 19.968-10.752 22.016-21.504zM395.295334 896m-51.2 0a51.2 51.2 0 1 0 102.4 0 51.2 51.2 0 1 0-102.4 0ZM866.335334 896m-51.2 0a51.2 51.2 0 1 0 102.4 0 51.2 51.2 0 1 0-102.4 0Z" /></svg>