<?xml version="1.0" standalone="no"?><!DOCTYPE svg PUBLIC "-//W3C//DTD SVG 1.1//EN" "http://www.w3.org/Graphics/SVG/1.1/DTD/svg11.dtd"><svg class="icon" width="200px" height="200.00px" viewBox="0 0 1024 1024" version="1.1" xmlns="http://www.w3.org/2000/svg"><path fill="#8a8a8a" d="M977.454545 279.272727 47.109642 279.272727c-20.310744 0-46.263361-26.516804-46.263361-46.263361C0.282094 212.134435 26.798898 186.181818 47.109642 186.181818l186.181818 0L233.29146 93.090909C232.727273 32.722865 265.450138 0 325.818182 0l369.5427 0c59.803857 0 95.347658 32.722865 95.347658 93.090909L790.70854 186.181818l186.181818 0c20.310744 0 46.263361 26.516804 46.263361 46.263361C1023.717906 252.755923 997.765289 279.272727 977.454545 279.272727L977.454545 279.272727zM698.181818 139.918457c0-20.310744-26.516804-46.263361-46.263361-46.263361L372.64573 93.655096c-20.310744 0-46.263361 26.516804-46.263361 46.263361L326.382369 186.181818l372.363636 0L698.181818 139.918457 698.181818 139.918457zM465.736639 372.363636l0 465.454545L372.64573 837.818182 372.64573 372.363636 465.736639 372.363636 465.736639 372.363636zM651.918457 372.363636l0 465.454545L558.827548 837.818182 558.827548 372.363636 651.918457 372.363636 651.918457 372.363636zM186.463912 325.536088c20.310744 0 46.827548 26.516804 46.827548 46.263361l0 511.717906c0 20.310744 26.516804 46.263361 46.263361 46.263361l465.454545 0c20.310744 0 46.263361-26.516804 46.263361-46.263361L791.272727 372.363636c0-20.310744 26.516804-46.263361 46.263361-46.263361 20.310744 0 46.263361 26.516804 46.263361 46.263361l0 558.545455c0 60.368044-32.722865 93.090909-93.090909 93.090909l-558.545455 0c-60.368044 0-93.090909-32.722865-93.090909-93.090909L139.072176 372.363636C139.636364 352.052893 166.153168 325.536088 186.463912 325.536088L186.463912 325.536088zM186.463912 325.536088" /></svg>