<?xml version="1.0" standalone="no"?><!DOCTYPE svg PUBLIC "-//W3C//DTD SVG 1.1//EN" "http://www.w3.org/Graphics/SVG/1.1/DTD/svg11.dtd"><svg class="icon" width="20px" height="20.00px" viewBox="0 0 1024 1024" version="1.1" xmlns="http://www.w3.org/2000/svg"><path fill="#8a8a8a" d="M814.482662 458.635755v-109.491356c0-166.795243-135.687419-302.482662-302.482662-302.482662S209.517338 182.246827 209.517338 349.042071v109.491356c-51.880484 4.809433-93.118817 48.298991-93.118817 101.407414v307.292096c0 56.280604 46.047767 102.32837 102.32837 102.32837h586.546218c56.280604 0 102.32837-46.047767 102.32837-102.32837V559.940841c0-53.108424-41.136005-96.597981-93.118817-101.305086zM558.559408 708.521635v87.2861c0 23.023883-18.82842 41.954632-41.954631 41.954631h-9.209554c-23.023883 0-41.954632-18.82842-41.954631-41.954631v-87.2861c-27.730988-16.167882-46.559408-45.84311-46.559409-80.123114 0-51.368842 41.647647-93.118817 93.118817-93.118817s93.118817 41.647647 93.118817 93.118817c0 34.280004-18.82842 63.955231-46.559409 80.123114zM721.466174 457.612471H302.533826V349.042071c0-115.52873 93.937444-209.466174 209.466174-209.466174S721.466174 233.615669 721.466174 349.042071v108.5704z"  /></svg>