<?xml version="1.0" standalone="no"?><!DOCTYPE svg PUBLIC "-//W3C//DTD SVG 1.1//EN" "http://www.w3.org/Graphics/SVG/1.1/DTD/svg11.dtd"><svg class="icon" width="32px" height="32.00px" viewBox="0 0 1024 1024" version="1.1" xmlns="http://www.w3.org/2000/svg"><path fill="#f8a227" d="M721.4 550.1c-29.8-25.1-63.2-44.7-99.1-58.1-5.4-2-10.8-3.9-16.2-5.6 46.9-33.2 77.5-87.9 77.5-149.6 0-101-82.2-183.2-183.2-183.2s-183.2 82.2-183.2 183.2c0 63.2 32.2 119.1 81.1 152-2.9 1-5.9 2-8.8 3.1-36 13.5-69.3 33-99.1 58.1-59.5 50.3-101.6 120.4-118.4 197.6-5.5 25.4 0.7 51.5 16.9 71.7 16.3 20.2 40.5 31.8 66.4 31.8h501.1c25.9 0 50.1-11.6 66.4-31.8 16.3-20.2 22.5-46.3 16.9-71.7-16.6-77.2-58.7-147.3-118.3-197.5zM367.3 336.8c0-73.5 59.8-133.2 133.2-133.2s133.2 59.8 133.2 133.2S573.9 470 500.5 470s-133.2-59.8-133.2-133.2zM784 788c-6.7 8.4-16.8 13.2-27.5 13.2H255.4c-10.7 0-20.8-4.8-27.5-13.2-6.7-8.4-9.3-19.2-7-29.7C251.3 618.6 368.5 521 506 521s254.6 97.5 285 237.2c2.3 10.6-0.3 21.4-7 29.8zM960.3 696c-14.6-67.1-51.2-128.1-103-171.7-25.9-21.8-54.9-38.8-86.2-50.6-4.2-1.6-8.4-3-12.7-4.4 40.2-29 66.4-76.3 66.4-129.5 0-88-71.6-159.7-159.7-159.7-4.7 0-9.3 0.2-13.9 0.6 18 13.3 33.4 29.8 45.6 48.7 48 13.8 83.1 58 83.1 110.4 0 59.5-45.4 108.5-103.4 114.2-8.2 8.8-17.3 16.9-27.1 23.9 4.9 1.6 9.8 3.3 14.6 5.1 15 5.6 29.6 12.3 43.6 20.1 102.1 15.7 185.3 94.5 208.8 202.4 1.9 8.9-0.2 18.1-5.9 25.2-5.7 7.1-14.2 11.1-23.3 11.1h-4.6c2.9 15.2 1.6 30.7-3.5 44.9h8.1c22.7 0 43.9-10.1 58.2-27.8 14.3-17.7 19.7-40.6 14.9-62.9zM296.6 503.2c14-7.7 28.6-14.4 43.6-20.1 4.8-1.8 9.7-3.5 14.6-5.1-9.8-7.1-18.9-15.1-27.1-23.9-58-5.7-103.4-54.8-103.4-114.2 0-52.3 35.2-96.6 83.1-110.4 12.1-18.9 27.6-35.4 45.6-48.7-4.6-0.4-9.2-0.6-13.9-0.6-88 0-159.7 71.6-159.7 159.7 0 53.2 26.2 100.5 66.4 129.5-4.2 1.4-8.5 2.8-12.7 4.4-31.3 11.7-60.3 28.7-86.2 50.6C95.2 567.9 58.6 628.9 44 696c-4.8 22.2 0.6 45.1 14.8 62.8 14.3 17.7 35.5 27.8 58.2 27.8h8.1c-5.1-14.2-6.4-29.6-3.5-44.9H117c-9.1 0-17.6-4.1-23.3-11.1-5.7-7.1-7.9-16.3-5.9-25.2 23.5-107.7 106.7-186.5 208.8-202.2z" /></svg>